<?xml version="1.0" encoding="utf-8"?>
<!-- Generator: Adobe Illustrator 22.1.0, SVG Export Plug-In . SVG Version: 6.00 Build 0)  -->
<svg version="1.1" id="Layer_1" xmlns="http://www.w3.org/2000/svg" xmlns:xlink="http://www.w3.org/1999/xlink" x="0px" y="0px"
	 viewBox="0 0 100 100" style="enable-background:new 0 0 100 100;" xml:space="preserve">
   <defs><style>.color{stroke:#fce373;fill:#fce373;}</style></defs>
<g>
	<g>
		<path class="color"  d="M52.2,40.9c-6.9-12.1-23.3-8-27.9,3.8C18.3,60,32.8,68.6,46,69.8c12.9,1.2,28.2-5.7,29-20.3c0.7-13.7-9.2-27.8-21.9-32.4
			C39.7,12.2,23.4,19,13.2,27.8C2.9,36.6-3,51.6,2.1,64.7c5.2,13.6,18.8,20.9,32.2,24.4c14.5,3.8,30.6,3.6,44-3.7
			c13.4-7.3,22.6-21.1,22.3-36.6c-0.1-7.9-1.7-16.6-6.2-23.2C90,19.1,83.1,15,75.9,12c-5.3-2.3-9.9,5.5-4.5,7.8
			c9.6,4.2,16.8,9.5,19.2,20.2c2.2,9.7,1.2,19.5-4.8,27.6C73,84.6,49.4,85.2,30.9,78.7c-8.9-3.1-18-9-20.9-18.5
			c-2.9-9.7,2.2-19.8,9.5-26.1c7.1-6,18.7-11.4,28.1-9.3c9.6,2.1,16.6,11.4,18,20.9c2.2,14.2-14.8,17-25.1,13.9
			c-5.4-1.6-10.2-4.8-8.2-11.2c1.6-5.1,8.6-8.8,12-3C47.3,50.5,55.1,46,52.2,40.9L52.2,40.9z"/>
	</g>
</g>
</svg>
