<?xml version="1.0" encoding="utf-8"?>
<!-- Generator: Adobe Illustrator 22.1.0, SVG Export Plug-In . SVG Version: 6.00 Build 0)  -->
<svg version="1.1" id="Layer_1" xmlns="http://www.w3.org/2000/svg" xmlns:xlink="http://www.w3.org/1999/xlink" x="0px" y="0px"
	 viewBox="0 0 100 100" style="enable-background:new 0 0 100 100;" xml:space="preserve">
    <defs><style>.color{stroke:#3b452a;fill:#3b452a;}</style></defs>
<g>
	<g>
		<path class="color" d="M21.4,3.6c-5.9,2.8-11.2,7.8-13.5,14c-2,5.2-0.3,11.1,5.7,12.2c5.7,1.1,12-2.5,16.7-5.2c3.1-1.8,6.1-3.9,9.2-5.7
			c2.8-1.6,6.6-4.4,9.9-4.1c-1.1-0.4-2.1-0.9-3.2-1.3c-0.9-0.8-2.6,3.3-3.4,4.3c-1.4,2-3,3.8-4.7,5.7c-3,3.4-6.3,6.6-9.3,10
			C24.2,38.5,15.9,46.3,18.2,54c4.8,16.4,29.2-3.7,35.3-8.9c6.1-5.1,12.1-10.6,19.2-14.4c0.7-0.4,2.2-0.7,2.7-1.3
			c0.2-0.1,0.5-0.2,0.7-0.3c-0.6-0.4-1.2-0.8-1.8-1.2c-0.6,0.1-3.1,4.9-3.6,5.5c-2.9,3.6-6.1,7-9.3,10.3C56.2,49.2,26,75.6,42,82.6
			c7.4,3.2,17.3-4.4,22.9-8.5c3.7-2.6,7.2-5.4,10.9-8c1.9-1.4,3.9-2.7,5.9-4c1-0.6,5.4-3.8,6.5-3.4c-0.9-0.7-1.8-1.4-2.7-2.1
			c-0.7-1.3-0.7,0.1-1.5,1.3c-0.9,1.3-1.8,2.6-2.8,3.8c-1.8,2.2-3.7,4.3-5.4,6.5c-3,3.7-7.2,8.4-7.3,13.5c-0.1,13.1,16.7,6.1,23.2,4
			c5.5-1.8,3.1-10.5-2.4-8.7c-1.7,0.5-3.3,1.1-5,1.6c-1.1,0.4-3.8,1.8-5,1.6c-9.4-1.3-0.8,0.9-1.3,0.3c-0.2-0.3,2.5-3.9,2.8-4.2
			c4-5.3,9.3-10,12.4-16c1.9-3.7,1.8-8.5-2.5-10.3c-4.8-1.9-11,2.7-14.8,5.1c-9.8,6.3-18.3,14.6-29.2,18.9c-0.4,0.1-0.8,0.1-1.2,0.2
			c1.3,0.1,2-0.5,2.3-1.7c0.7-0.7,1.6-2.2,2.1-2.9c2.2-2.8,4.5-5.4,6.9-8c4.4-4.8,9-9.4,13.4-14.1c4.5-4.8,20.7-20.4,10.3-26.7
			c-4.2-2.5-9.3,0.2-13,2.3C62.6,26,58.2,29.4,54,33c-4.1,3.4-8,7-12.3,10.2c-1.9,1.5-4,2.9-6.1,4.1c-1.2,0.7-2.5,1.5-3.8,2.1
			c-1.7,0.8-4.3,2.9-4.3,0.2c0-2,4.2-5.8,5.4-7.2c1.9-2.2,3.8-4.2,5.8-6.3c4.5-4.8,9.3-9.6,12.8-15.1c2.4-3.9,5.5-10.3,1-13.8
			c-4.7-3.7-12,0.8-16.3,3.2c-5.4,3.1-10.5,7.1-16.3,9.4c-0.4,0.1-3.7,1.6-4,1.2c0.2,0.3,1.3-2.1,1.6-2.6c2-3.2,5-5.4,8.4-7
			C31.2,8.8,26.6,1.1,21.4,3.6L21.4,3.6z"/>
	</g>
</g>
</svg>
