<svg width="232" height="200" viewBox="0 0 232 200" fill="none" xmlns="http://www.w3.org/2000/svg">
<rect width="200" height="200" fill="#FBB02D"/>
<path d="M83.8303 84.926C83.8303 88.022 83.2363 90.686 82.0483 92.918C80.8603 95.186 79.2043 96.914 77.0803 98.102C74.9923 99.326 72.5983 99.974 69.8983 100.046V94.97C72.5623 94.826 74.6683 93.89 76.2163 92.162C77.8003 90.47 78.5923 88.004 78.5923 84.764V52.958H83.8303V84.926ZM91.889 80.606C91.889 78.41 92.411 76.412 93.455 74.612C94.535 72.776 96.011 71.336 97.883 70.292C99.791 69.248 101.933 68.726 104.309 68.726C106.685 68.726 108.791 69.248 110.627 70.292C112.499 71.336 113.939 72.758 114.947 74.558C115.991 76.358 116.513 78.374 116.513 80.606C116.513 82.838 115.991 84.872 114.947 86.708C113.939 88.508 112.499 89.93 110.627 90.974C108.755 92.018 106.613 92.54 104.201 92.54C101.861 92.54 99.755 92.054 97.883 91.082C96.011 90.074 94.535 88.67 93.455 86.87C92.411 85.07 91.889 82.982 91.889 80.606ZM96.965 80.66C96.965 82.064 97.271 83.36 97.883 84.548C98.531 85.736 99.395 86.672 100.475 87.356C101.591 88.04 102.815 88.382 104.147 88.382C106.235 88.382 107.963 87.644 109.331 86.168C110.699 84.692 111.383 82.856 111.383 80.66C111.383 78.464 110.699 76.628 109.331 75.152C107.963 73.64 106.235 72.884 104.147 72.884C102.779 72.884 101.555 73.244 100.475 73.964C99.395 74.648 98.531 75.584 97.883 76.772C97.271 77.96 96.965 79.256 96.965 80.66ZM129.577 92.486C127.921 92.486 126.337 92.198 124.825 91.622C123.349 91.046 122.143 90.2 121.207 89.084L123.367 86.168C124.267 87.032 125.203 87.698 126.175 88.166C127.183 88.634 128.173 88.868 129.145 88.868C130.333 88.868 131.305 88.634 132.061 88.166C132.817 87.698 133.195 86.978 133.195 86.006C133.195 85.25 132.961 84.638 132.493 84.17C132.025 83.702 131.485 83.36 130.873 83.144C130.297 82.928 129.307 82.604 127.903 82.172C124.087 80.948 122.179 78.77 122.179 75.638C122.179 73.766 122.863 72.164 124.231 70.832C125.635 69.5 127.579 68.834 130.063 68.834C131.647 68.834 133.051 69.032 134.275 69.428C135.499 69.824 136.633 70.454 137.677 71.318L135.679 74.396C135.103 73.784 134.365 73.298 133.465 72.938C132.601 72.578 131.773 72.38 130.981 72.344C129.973 72.344 129.109 72.596 128.389 73.1C127.669 73.568 127.309 74.216 127.309 75.044C127.309 75.728 127.543 76.304 128.011 76.772C128.479 77.204 128.965 77.528 129.469 77.744C129.973 77.924 130.963 78.248 132.439 78.716C134.275 79.328 135.697 80.12 136.705 81.092C137.749 82.064 138.271 83.378 138.271 85.034C138.271 87.194 137.515 88.976 136.003 90.38C134.491 91.784 132.349 92.486 129.577 92.486ZM159.18 68.78C161.268 68.78 162.996 69.41 164.364 70.67C165.732 71.894 166.434 73.496 166.47 75.476V92H161.394V77.204C161.322 75.944 160.944 74.954 160.26 74.234C159.576 73.514 158.55 73.136 157.182 73.1C155.886 73.1 154.716 73.46 153.672 74.18C152.628 74.9 151.8 75.908 151.188 77.204C150.612 78.5 150.324 79.94 150.324 81.524V92H145.302V50.15H150.216V73.694C151.044 72.218 152.232 71.03 153.78 70.13C155.364 69.23 157.164 68.78 159.18 68.78ZM195.939 69.644V92H191.403L191.079 87.734C190.323 89.246 189.153 90.488 187.569 91.46C185.985 92.396 184.221 92.864 182.277 92.864C180.225 92.864 178.533 92.252 177.201 91.028C175.905 89.768 175.221 88.148 175.149 86.168V69.644H180.171V84.386C180.243 85.646 180.603 86.654 181.251 87.41C181.935 88.13 182.943 88.508 184.275 88.544C185.499 88.544 186.615 88.184 187.623 87.464C188.631 86.708 189.423 85.682 189.999 84.386C190.611 83.09 190.917 81.65 190.917 80.066V69.644H195.939ZM227.631 69.644V92H222.609V88.328C221.817 89.372 220.665 90.344 219.153 91.244C217.641 92.108 215.931 92.54 214.023 92.54C211.899 92.54 209.973 92.09 208.245 91.19C206.553 90.254 205.203 88.904 204.195 87.14C203.223 85.376 202.737 83.27 202.737 80.822C202.737 78.374 203.241 76.25 204.249 74.45C205.293 72.614 206.679 71.21 208.407 70.238C210.171 69.23 212.115 68.726 214.239 68.726C216.147 68.726 217.803 69.14 219.207 69.968C220.611 70.796 221.745 71.876 222.609 73.208L222.987 69.644H227.631ZM215.373 88.382C217.209 88.382 218.775 87.878 220.071 86.87C221.403 85.826 222.249 84.422 222.609 82.658V78.23C222.177 76.646 221.277 75.368 219.909 74.396C218.541 73.388 216.975 72.884 215.211 72.884C213.879 72.884 212.637 73.208 211.485 73.856C210.369 74.504 209.469 75.422 208.785 76.61C208.137 77.762 207.813 79.076 207.813 80.552C207.813 81.992 208.155 83.306 208.839 84.494C209.523 85.682 210.441 86.636 211.593 87.356C212.745 88.04 214.005 88.382 215.373 88.382ZM52.091 147.728L42.965 124.4L32.975 147.836L17.423 107.12H23.525L33.623 135.524L40.373 117.812L36.215 107.12H41.399L52.253 134.93L61.865 107.12H67.481L52.091 147.728ZM66.9984 134.606C66.9984 132.41 67.5204 130.412 68.5644 128.612C69.6444 126.776 71.1204 125.336 72.9924 124.292C74.9004 123.248 77.0424 122.726 79.4184 122.726C81.7944 122.726 83.9004 123.248 85.7364 124.292C87.6084 125.336 89.0484 126.758 90.0564 128.558C91.1004 130.358 91.6224 132.374 91.6224 134.606C91.6224 136.838 91.1004 138.872 90.0564 140.708C89.0484 142.508 87.6084 143.93 85.7364 144.974C83.8644 146.018 81.7224 146.54 79.3104 146.54C76.9704 146.54 74.8644 146.054 72.9924 145.082C71.1204 144.074 69.6444 142.67 68.5644 140.87C67.5204 139.07 66.9984 136.982 66.9984 134.606ZM72.0744 134.66C72.0744 136.064 72.3804 137.36 72.9924 138.548C73.6404 139.736 74.5044 140.672 75.5844 141.356C76.7004 142.04 77.9244 142.382 79.2564 142.382C81.3444 142.382 83.0724 141.644 84.4404 140.168C85.8084 138.692 86.4924 136.856 86.4924 134.66C86.4924 132.464 85.8084 130.628 84.4404 129.152C83.0724 127.64 81.3444 126.884 79.2564 126.884C77.8884 126.884 76.6644 127.244 75.5844 127.964C74.5044 128.648 73.6404 129.584 72.9924 130.772C72.3804 131.96 72.0744 133.256 72.0744 134.66ZM96.4241 134.606C96.4241 132.41 96.9461 130.412 97.9901 128.612C99.0701 126.776 100.546 125.336 102.418 124.292C104.326 123.248 106.468 122.726 108.844 122.726C111.22 122.726 113.326 123.248 115.162 124.292C117.034 125.336 118.474 126.758 119.482 128.558C120.526 130.358 121.048 132.374 121.048 134.606C121.048 136.838 120.526 138.872 119.482 140.708C118.474 142.508 117.034 143.93 115.162 144.974C113.29 146.018 111.148 146.54 108.736 146.54C106.396 146.54 104.29 146.054 102.418 145.082C100.546 144.074 99.0701 142.67 97.9901 140.87C96.9461 139.07 96.4241 136.982 96.4241 134.606ZM101.5 134.66C101.5 136.064 101.806 137.36 102.418 138.548C103.066 139.736 103.93 140.672 105.01 141.356C106.126 142.04 107.35 142.382 108.682 142.382C110.77 142.382 112.498 141.644 113.866 140.168C115.234 138.692 115.918 136.856 115.918 134.66C115.918 132.464 115.234 130.628 113.866 129.152C112.498 127.64 110.77 126.884 108.682 126.884C107.314 126.884 106.09 127.244 105.01 127.964C103.93 128.648 103.066 129.584 102.418 130.772C101.806 131.96 101.5 133.256 101.5 134.66ZM135.03 113.816V123.698H141.132V127.694H135.03V146H129.954V127.694H125.85V123.698H129.954V113.816H135.03ZM145.309 134.606C145.309 132.41 145.831 130.412 146.875 128.612C147.955 126.776 149.431 125.336 151.303 124.292C153.211 123.248 155.353 122.726 157.729 122.726C160.105 122.726 162.211 123.248 164.047 124.292C165.919 125.336 167.359 126.758 168.367 128.558C169.411 130.358 169.933 132.374 169.933 134.606C169.933 136.838 169.411 138.872 168.367 140.708C167.359 142.508 165.919 143.93 164.047 144.974C162.175 146.018 160.033 146.54 157.621 146.54C155.281 146.54 153.175 146.054 151.303 145.082C149.431 144.074 147.955 142.67 146.875 140.87C145.831 139.07 145.309 136.982 145.309 134.606ZM150.385 134.66C150.385 136.064 150.691 137.36 151.303 138.548C151.951 139.736 152.815 140.672 153.895 141.356C155.011 142.04 156.235 142.382 157.567 142.382C159.655 142.382 161.383 141.644 162.751 140.168C164.119 138.692 164.803 136.856 164.803 134.66C164.803 132.464 164.119 130.628 162.751 129.152C161.383 127.64 159.655 126.884 157.567 126.884C156.199 126.884 154.975 127.244 153.895 127.964C152.815 128.648 151.951 129.584 151.303 130.772C150.691 131.96 150.385 133.256 150.385 134.66ZM190.557 122.78C192.645 122.78 194.373 123.41 195.741 124.67C197.109 125.894 197.811 127.496 197.847 129.476V146H192.771V131.204C192.699 129.944 192.321 128.954 191.637 128.234C190.953 127.514 189.927 127.136 188.559 127.1C186.579 127.1 184.941 127.892 183.645 129.476C182.349 131.06 181.701 133.076 181.701 135.524V146H176.679V123.644H181.215L181.539 127.964C182.331 126.344 183.519 125.084 185.103 124.184C186.687 123.248 188.505 122.78 190.557 122.78ZM220.404 122.78C222.492 122.78 224.22 123.41 225.588 124.67C226.956 125.894 227.658 127.496 227.694 129.476V146H222.618V131.204C222.546 129.944 222.168 128.954 221.484 128.234C220.8 127.514 219.774 127.136 218.406 127.1C216.426 127.1 214.788 127.892 213.492 129.476C212.196 131.06 211.548 133.076 211.548 135.524V146H206.526V123.644H211.062L211.386 127.964C212.178 126.344 213.366 125.084 214.95 124.184C216.534 123.248 218.352 122.78 220.404 122.78Z" fill="#333333"/>
</svg>
